<svg width="50" height="50" viewBox="0 0 50 50" fill="none" xmlns="http://www.w3.org/2000/svg">
<path d="M21.3542 20.8958C21.3542 22.0208 21.6667 22.1875 22.375 22.4375L23.4375 22.8125V19.2708H22.8125C22.0208 19.2708 21.3542 20 21.3542 20.8958ZM26.5625 30.7292H27.1875C28 30.7292 28.6458 30 28.6458 29.1042C28.6458 27.9792 28.3333 27.8125 27.625 27.5625L26.5625 27.1875V30.7292Z" fill="#172E08"/>
<path d="M40.7917 11.4167L36.5208 15.6875C36.2083 16 35.8125 16.1458 35.4167 16.1458C35.0208 16.1458 34.625 16 34.3125 15.6875C34.0219 15.3935 33.8589 14.9967 33.8589 14.5833C33.8589 14.1699 34.0219 13.7732 34.3125 13.4792L38.5833 9.20832C34.9167 6.08332 30.1875 4.16666 25 4.16666C13.5 4.16666 4.16666 13.5 4.16666 25C4.16666 36.5 13.5 45.8333 25 45.8333C36.5 45.8333 45.8333 36.5 45.8333 25C45.8333 19.8125 43.9167 15.0833 40.7917 11.4167ZM28.6458 24.625C29.9792 25.1042 31.7708 26.0625 31.7708 29.125C31.7708 31.7292 29.7083 33.875 27.1875 33.875H26.5625V34.3958C26.5625 35.25 25.8542 35.9583 25 35.9583C24.1458 35.9583 23.4375 35.25 23.4375 34.3958V33.875H23.2708C20.5 33.875 18.2292 31.5417 18.2292 28.6667C18.2292 27.7917 18.9375 27.0833 19.7917 27.0833C20.6458 27.0833 21.3542 27.7917 21.3542 28.6458C21.3542 29.7917 22.2083 30.7292 23.2708 30.7292H23.4375V26.1042L21.3542 25.375C20.0208 24.8958 18.2292 23.9375 18.2292 20.875C18.2292 18.2708 20.2917 16.125 22.8125 16.125H23.4375V15.625C23.4375 14.7708 24.1458 14.0625 25 14.0625C25.8542 14.0625 26.5625 14.7708 26.5625 15.625V16.1458H26.7292C29.5 16.1458 31.7708 18.4792 31.7708 21.3542C31.7708 22.2083 31.0625 22.9167 30.2083 22.9167C29.3542 22.9167 28.6458 22.2083 28.6458 21.3542C28.6458 20.2083 27.7917 19.2708 26.7292 19.2708H26.5625V23.8958L28.6458 24.625V24.625ZM47.2708 3.56249C47.1061 3.17883 46.8003 2.87307 46.4167 2.70832C46.2293 2.64176 46.0322 2.60657 45.8333 2.60416H37.5C36.6458 2.60416 35.9375 3.31249 35.9375 4.16666C35.9375 5.02082 36.6458 5.72916 37.5 5.72916H42.0625L38.5833 9.20832C39.375 9.89582 40.1042 10.625 40.7917 11.4167L44.2708 7.93749V12.5C44.2708 13.3542 44.9792 14.0625 45.8333 14.0625C46.6875 14.0625 47.3958 13.3542 47.3958 12.5V4.16666C47.3958 3.95832 47.3542 3.77082 47.2708 3.56249Z" fill="#172E08"/>
</svg>
