<svg width="1424" height="354" viewBox="0 0 1424 354" fill="none" xmlns="http://www.w3.org/2000/svg">
<g filter="url(#filter0_d_3_13)">
<path d="M4.62553 270V0.909083H115.783C135.93 0.909083 153.318 4.54426 167.946 11.8146C182.662 18.9974 194.005 29.3336 201.976 42.8231C209.948 56.2251 213.933 72.1236 213.933 90.5185C213.933 109.176 209.86 125.031 201.714 138.082C193.567 151.046 182.005 160.945 167.026 167.777C152.047 174.522 134.309 177.894 113.812 177.894H43.5176V126.651H101.724C111.535 126.651 119.725 125.381 126.295 122.841C132.952 120.213 137.988 116.271 141.405 111.016C144.821 105.672 146.529 98.84 146.529 90.5185C146.529 82.197 144.821 75.3208 141.405 69.8899C137.988 64.3714 132.952 60.2545 126.295 57.5391C119.637 54.736 111.447 53.3345 101.724 53.3345H69.6646V270H4.62553ZM156.121 147.017L223.131 270H152.179L86.4828 147.017H156.121ZM339.971 273.81C318.861 273.81 300.641 269.65 285.312 261.328C270.07 252.919 258.333 240.962 250.099 225.458C241.952 209.866 237.879 191.34 237.879 169.879C237.879 149.032 241.996 130.812 250.23 115.22C258.464 99.5407 270.07 87.365 285.049 78.6932C300.028 69.9337 317.678 65.554 338 65.554C352.366 65.554 365.505 67.7876 377.418 72.255C389.33 76.7223 399.623 83.3357 408.295 92.0952C416.967 100.855 423.711 111.673 428.529 124.549C433.347 137.338 435.756 152.01 435.756 168.565V184.595H260.347V147.28H375.972C375.885 140.447 374.264 134.36 371.111 129.016C367.957 123.673 363.621 119.512 358.103 116.534C352.672 113.468 346.409 111.935 339.314 111.935C332.131 111.935 325.693 113.556 319.999 116.797C314.306 119.95 309.795 124.286 306.466 129.805C303.137 135.236 301.385 141.411 301.21 148.331V186.303C301.21 194.537 302.831 201.764 306.072 207.983C309.313 214.115 313.911 218.888 319.868 222.305C325.824 225.721 332.92 227.429 341.153 227.429C346.847 227.429 352.015 226.641 356.658 225.064C361.3 223.487 365.286 221.166 368.614 218.1C371.943 215.034 374.439 211.268 376.104 206.8L435.099 208.509C432.646 221.735 427.259 233.254 418.938 243.065C410.704 252.788 399.886 260.365 386.484 265.795C373.082 271.139 357.577 273.81 339.971 273.81ZM562.779 273.81C541.493 273.81 523.23 269.431 507.988 260.671C492.835 251.912 481.184 239.736 473.038 224.144C464.892 208.465 460.819 190.333 460.819 169.748C460.819 149.076 464.892 130.943 473.038 115.352C481.272 99.6721 492.966 87.4526 508.12 78.6932C523.361 69.9337 541.537 65.554 562.648 65.554C581.305 65.554 597.554 68.9264 611.394 75.6712C625.322 82.416 636.183 91.9638 643.979 104.315C651.863 116.578 656.024 130.987 656.461 147.543H596.415C595.189 137.206 591.685 129.104 585.904 123.235C580.21 117.366 572.765 114.432 563.567 114.432C556.122 114.432 549.596 116.534 543.99 120.739C538.384 124.856 534.004 130.987 530.851 139.134C527.785 147.192 526.252 157.178 526.252 169.091C526.252 181.004 527.785 191.077 530.851 199.311C534.004 207.457 538.384 213.633 543.99 217.837C549.596 221.954 556.122 224.013 563.567 224.013C569.524 224.013 574.779 222.743 579.334 220.202C583.977 217.662 587.787 213.939 590.765 209.034C593.744 204.041 595.627 197.997 596.415 190.902H656.461C655.848 207.545 651.688 222.086 643.979 234.524C636.358 246.963 625.628 256.642 611.788 263.562C598.036 270.394 581.699 273.81 562.779 273.81ZM728.629 345.682C720.92 345.682 713.65 345.069 706.817 343.842C699.985 342.704 694.116 341.171 689.211 339.244L703.401 292.599C709.708 294.702 715.402 295.928 720.482 296.278C725.65 296.629 730.074 295.797 733.753 293.782C737.519 291.855 740.41 288.395 742.425 283.402L744.921 277.358L673.181 68.1818H740.454L777.638 212.188H779.74L817.45 68.1818H885.116L809.04 289.315C805.362 300.352 800.15 310.075 793.405 318.484C786.748 326.98 778.12 333.638 767.521 338.455C757.009 343.273 744.045 345.682 728.629 345.682ZM997.457 273.81C976.171 273.81 957.908 269.431 942.666 260.671C927.512 251.912 915.862 239.736 907.716 224.144C899.57 208.465 895.496 190.333 895.496 169.748C895.496 149.076 899.57 130.943 907.716 115.352C915.95 99.6721 927.644 87.4526 942.798 78.6932C958.039 69.9337 976.215 65.554 997.325 65.554C1015.98 65.554 1032.23 68.9264 1046.07 75.6712C1060 82.416 1070.86 91.9638 1078.66 104.315C1086.54 116.578 1090.7 130.987 1091.14 147.543H1031.09C1029.87 137.206 1026.36 129.104 1020.58 123.235C1014.89 117.366 1007.44 114.432 998.245 114.432C990.799 114.432 984.274 116.534 978.668 120.739C973.062 124.856 968.682 130.987 965.528 139.134C962.463 147.192 960.93 157.178 960.93 169.091C960.93 181.004 962.463 191.077 965.528 199.311C968.682 207.457 973.062 213.633 978.668 217.837C984.274 221.954 990.799 224.013 998.245 224.013C1004.2 224.013 1009.46 222.743 1014.01 220.202C1018.65 217.662 1022.46 213.939 1025.44 209.034C1028.42 204.041 1030.3 197.997 1031.09 190.902H1091.14C1090.53 207.545 1086.37 222.086 1078.66 234.524C1071.04 246.963 1060.31 256.642 1046.47 263.562C1032.71 270.394 1016.38 273.81 997.457 273.81ZM1188.27 0.909083V270H1124.02V0.909083H1188.27ZM1323.51 273.81C1302.4 273.81 1284.18 269.65 1268.85 261.328C1253.61 252.919 1241.87 240.962 1233.63 225.458C1225.49 209.866 1221.41 191.34 1221.41 169.879C1221.41 149.032 1225.53 130.812 1233.77 115.22C1242 99.5407 1253.61 87.365 1268.58 78.6932C1283.56 69.9337 1301.21 65.554 1321.54 65.554C1335.9 65.554 1349.04 67.7876 1360.95 72.255C1372.87 76.7223 1383.16 83.3357 1391.83 92.0952C1400.5 100.855 1407.25 111.673 1412.06 124.549C1416.88 137.338 1419.29 152.01 1419.29 168.565V184.595H1243.88V147.28H1359.51C1359.42 140.447 1357.8 134.36 1354.65 129.016C1351.49 123.673 1347.16 119.512 1341.64 116.534C1336.21 113.468 1329.94 111.935 1322.85 111.935C1315.67 111.935 1309.23 113.556 1303.53 116.797C1297.84 119.95 1293.33 124.286 1290 129.805C1286.67 135.236 1284.92 141.411 1284.75 148.331V186.303C1284.75 194.537 1286.37 201.764 1289.61 207.983C1292.85 214.115 1297.45 218.888 1303.4 222.305C1309.36 225.721 1316.45 227.429 1324.69 227.429C1330.38 227.429 1335.55 226.641 1340.19 225.064C1344.84 223.487 1348.82 221.166 1352.15 218.1C1355.48 215.034 1357.97 211.268 1359.64 206.8L1418.63 208.509C1416.18 221.735 1410.79 233.254 1402.47 243.065C1394.24 252.788 1383.42 260.365 1370.02 265.795C1356.62 271.139 1341.11 273.81 1323.51 273.81Z" fill="white"/>
</g>
<defs>
<filter id="filter0_d_3_13" x="0.625549" y="0.909088" width="1422.67" height="352.773" filterUnits="userSpaceOnUse" color-interpolation-filters="sRGB">
<feFlood flood-opacity="0" result="BackgroundImageFix"/>
<feColorMatrix in="SourceAlpha" type="matrix" values="0 0 0 0 0 0 0 0 0 0 0 0 0 0 0 0 0 0 127 0" result="hardAlpha"/>
<feOffset dy="4"/>
<feGaussianBlur stdDeviation="2"/>
<feComposite in2="hardAlpha" operator="out"/>
<feColorMatrix type="matrix" values="0 0 0 0 0 0 0 0 0 0 0 0 0 0 0 0 0 0 0.25 0"/>
<feBlend mode="normal" in2="BackgroundImageFix" result="effect1_dropShadow_3_13"/>
<feBlend mode="normal" in="SourceGraphic" in2="effect1_dropShadow_3_13" result="shape"/>
</filter>
</defs>
</svg>
